<?xml version="1.0" encoding="UTF-8" standalone="no"?>
<!DOCTYPE svg PUBLIC "-//W3C//DTD SVG 1.1//EN"
 "http://www.w3.org/Graphics/SVG/1.1/DTD/svg11.dtd">
<!-- Generated by graphviz version 2.40.1 (20161225.0304)
 -->
<!-- Title: controllers_diagram Pages: 1 -->
<svg width="365pt" height="324pt"
 viewBox="0.00 0.00 365.38 324.00" xmlns="http://www.w3.org/2000/svg" xmlns:xlink="http://www.w3.org/1999/xlink">
<g id="graph0" class="graph" transform="scale(1 1) rotate(0) translate(4 320)">
<title>controllers_diagram</title>
<polygon fill="transparent" stroke="transparent" points="-4,4 -4,-320 361.3755,-320 361.3755,4 -4,4"/>
<!-- _diagram_info -->
<g id="node1" class="node">
<title>_diagram_info</title>
<text text-anchor="start" x="158" y="-88.6" font-family="Times,serif" font-size="13.00" fill="#000000">Controllers diagram</text>
<text text-anchor="start" x="158" y="-75.6" font-family="Times,serif" font-size="13.00" fill="#000000">Date: Apr 25 2019 &#45; 11:01</text>
<text text-anchor="start" x="158" y="-62.6" font-family="Times,serif" font-size="13.00" fill="#000000">Migration version: 20190414234642</text>
<text text-anchor="start" x="158" y="-49.6" font-family="Times,serif" font-size="13.00" fill="#000000">Generated by RailRoady 1.5.3</text>
<text text-anchor="start" x="158" y="-36.6" font-family="Times,serif" font-size="13.00" fill="#000000">http://railroady.prestonlee.com</text>
</g>
<!-- ApplicationController -->
<g id="node2" class="node">
<title>ApplicationController</title>
<path fill="none" stroke="#000000" d="M162,-135.5C162,-135.5 277.6416,-135.5 277.6416,-135.5 283.6416,-135.5 289.6416,-141.5 289.6416,-147.5 289.6416,-147.5 289.6416,-215.5 289.6416,-215.5 289.6416,-221.5 283.6416,-227.5 277.6416,-227.5 277.6416,-227.5 162,-227.5 162,-227.5 156,-227.5 150,-221.5 150,-215.5 150,-215.5 150,-147.5 150,-147.5 150,-141.5 156,-135.5 162,-135.5"/>
<text text-anchor="middle" x="219.8208" y="-212.3" font-family="Times,serif" font-size="14.00" fill="#000000">ApplicationController</text>
<polyline fill="none" stroke="#000000" points="150,-205.5 289.6416,-205.5 "/>
<polyline fill="none" stroke="#000000" points="150,-181.5 289.6416,-181.5 "/>
<polyline fill="none" stroke="#000000" points="150,-157.5 289.6416,-157.5 "/>
<text text-anchor="start" x="158" y="-142.3" font-family="Times,serif" font-size="14.00" fill="#000000">_layout</text>
</g>
<!-- ProductsController -->
<g id="node3" class="node">
<title>ProductsController</title>
<path fill="none" stroke="#000000" d="M12,-.5C12,-.5 110.5449,-.5 110.5449,-.5 116.5449,-.5 122.5449,-6.5 122.5449,-12.5 122.5449,-12.5 122.5449,-176.5 122.5449,-176.5 122.5449,-182.5 116.5449,-188.5 110.5449,-188.5 110.5449,-188.5 12,-188.5 12,-188.5 6,-188.5 0,-182.5 0,-176.5 0,-176.5 0,-12.5 0,-12.5 0,-6.5 6,-.5 12,-.5"/>
<text text-anchor="middle" x="61.2725" y="-173.3" font-family="Times,serif" font-size="14.00" fill="#000000">ProductsController</text>
<polyline fill="none" stroke="#000000" points="0,-166.5 122.5449,-166.5 "/>
<text text-anchor="start" x="8" y="-151.3" font-family="Times,serif" font-size="14.00" fill="#000000">create</text>
<text text-anchor="start" x="8" y="-137.3" font-family="Times,serif" font-size="14.00" fill="#000000">destroy</text>
<text text-anchor="start" x="8" y="-123.3" font-family="Times,serif" font-size="14.00" fill="#000000">edit</text>
<text text-anchor="start" x="8" y="-109.3" font-family="Times,serif" font-size="14.00" fill="#000000">index</text>
<text text-anchor="start" x="8" y="-95.3" font-family="Times,serif" font-size="14.00" fill="#000000">new</text>
<text text-anchor="start" x="8" y="-81.3" font-family="Times,serif" font-size="14.00" fill="#000000">show</text>
<text text-anchor="start" x="8" y="-67.3" font-family="Times,serif" font-size="14.00" fill="#000000">update</text>
<polyline fill="none" stroke="#000000" points="0,-60.5 122.5449,-60.5 "/>
<polyline fill="none" stroke="#000000" points="0,-36.5 122.5449,-36.5 "/>
<text text-anchor="start" x="8" y="-21.3" font-family="Times,serif" font-size="14.00" fill="#000000">_layout</text>
<text text-anchor="start" x="8" y="-7.3" font-family="Times,serif" font-size="14.00" fill="#000000">product_params</text>
</g>
<!-- ImportsController -->
<g id="node4" class="node">
<title>ImportsController</title>
<path fill="none" stroke="#000000" d="M12,-225.5C12,-225.5 105.0967,-225.5 105.0967,-225.5 111.0967,-225.5 117.0967,-231.5 117.0967,-237.5 117.0967,-237.5 117.0967,-303.5 117.0967,-303.5 117.0967,-309.5 111.0967,-315.5 105.0967,-315.5 105.0967,-315.5 12,-315.5 12,-315.5 6,-315.5 0,-309.5 0,-303.5 0,-303.5 0,-237.5 0,-237.5 0,-231.5 6,-225.5 12,-225.5"/>
<text text-anchor="middle" x="58.5483" y="-300.3" font-family="Times,serif" font-size="14.00" fill="#000000">ImportsController</text>
<polyline fill="none" stroke="#000000" points="0,-293.5 117.0967,-293.5 "/>
<text text-anchor="start" x="8" y="-278.3" font-family="Times,serif" font-size="14.00" fill="#000000">create</text>
<polyline fill="none" stroke="#000000" points="0,-271.5 117.0967,-271.5 "/>
<polyline fill="none" stroke="#000000" points="0,-247.5 117.0967,-247.5 "/>
<text text-anchor="start" x="8" y="-232.3" font-family="Times,serif" font-size="14.00" fill="#000000">_layout</text>
</g>
</g>
</svg>
