<?xml version="1.0" encoding="UTF-8" standalone="no"?>
<!DOCTYPE svg PUBLIC "-//W3C//DTD SVG 1.1//EN"
 "http://www.w3.org/Graphics/SVG/1.1/DTD/svg11.dtd">
<!-- Generated by graphviz version 2.40.1 (20161225.0304)
 -->
<!-- Title: models_diagram Pages: 1 -->
<svg width="654pt" height="165pt"
 viewBox="0.00 0.00 654.08 165.00" xmlns="http://www.w3.org/2000/svg" xmlns:xlink="http://www.w3.org/1999/xlink">
<g id="graph0" class="graph" transform="scale(1 1) rotate(0) translate(4 161)">
<title>models_diagram</title>
<polygon fill="transparent" stroke="transparent" points="-4,4 -4,-161 650.0835,-161 650.0835,4 -4,4"/>
<!-- _diagram_info -->
<g id="node1" class="node">
<title>_diagram_info</title>
<text text-anchor="start" x="8" y="-100.6" font-family="Times,serif" font-size="13.00" fill="#000000">Models diagram</text>
<text text-anchor="start" x="8" y="-87.6" font-family="Times,serif" font-size="13.00" fill="#000000">Date: Apr 25 2019 &#45; 11:01</text>
<text text-anchor="start" x="8" y="-74.6" font-family="Times,serif" font-size="13.00" fill="#000000">Migration version: 20190414234642</text>
<text text-anchor="start" x="8" y="-61.6" font-family="Times,serif" font-size="13.00" fill="#000000">Generated by RailRoady 1.5.3</text>
<text text-anchor="start" x="8" y="-48.6" font-family="Times,serif" font-size="13.00" fill="#000000">http://railroady.prestonlee.com</text>
</g>
<!-- Product -->
<g id="node2" class="node">
<title>Product</title>
<path fill="none" stroke="#000000" d="M237.8254,-.5C237.8254,-.5 461.55,-.5 461.55,-.5 467.55,-.5 473.55,-6.5 473.55,-12.5 473.55,-12.5 473.55,-144.5 473.55,-144.5 473.55,-150.5 467.55,-156.5 461.55,-156.5 461.55,-156.5 237.8254,-156.5 237.8254,-156.5 231.8254,-156.5 225.8254,-150.5 225.8254,-144.5 225.8254,-144.5 225.8254,-12.5 225.8254,-12.5 225.8254,-6.5 231.8254,-.5 237.8254,-.5"/>
<text text-anchor="middle" x="349.6877" y="-141.3" font-family="Times,serif" font-size="14.00" fill="#000000">Product</text>
<polyline fill="none" stroke="#000000" points="225.8254,-134.5 473.55,-134.5 "/>
<text text-anchor="start" x="233.8254" y="-119.3" font-family="Times,serif" font-size="14.00" fill="#000000">active :boolean</text>
<text text-anchor="start" x="233.8254" y="-105.3" font-family="Times,serif" font-size="14.00" fill="#000000">name :character varying</text>
<text text-anchor="start" x="233.8254" y="-91.3" font-family="Times,serif" font-size="14.00" fill="#000000">version :character varying</text>
<text text-anchor="start" x="233.8254" y="-77.3" font-family="Times,serif" font-size="14.00" fill="#000000">author :character varying</text>
<text text-anchor="start" x="233.8254" y="-63.3" font-family="Times,serif" font-size="14.00" fill="#000000">value :integer</text>
<text text-anchor="start" x="233.8254" y="-49.3" font-family="Times,serif" font-size="14.00" fill="#000000">release_date :date</text>
<text text-anchor="start" x="233.8254" y="-35.3" font-family="Times,serif" font-size="14.00" fill="#000000">created_at :timestamp without time zone</text>
<text text-anchor="start" x="233.8254" y="-21.3" font-family="Times,serif" font-size="14.00" fill="#000000">updated_at :timestamp without time zone</text>
<text text-anchor="start" x="233.8254" y="-7.3" font-family="Times,serif" font-size="14.00" fill="#000000">id :bigint</text>
</g>
<!-- ApplicationRecord -->
<g id="node3" class="node">
<title>ApplicationRecord</title>
<ellipse fill="none" stroke="#000000" cx="568.6877" cy="-78.5" rx="77.2916" ry="18"/>
<text text-anchor="middle" x="568.6877" y="-74.3" font-family="Times,serif" font-size="14.00" fill="#000000">ApplicationRecord</text>
</g>
</g>
</svg>
